<?xml version="1.0" encoding="utf-8"?>
<!-- Generator: Adobe Illustrator 17.1.0, SVG Export Plug-In . SVG Version: 6.00 Build 0)  -->
<!DOCTYPE svg PUBLIC "-//W3C//DTD SVG 1.1//EN" "http://www.w3.org/Graphics/SVG/1.1/DTD/svg11.dtd">
<svg version="1.1" id="Layer_1" xmlns="http://www.w3.org/2000/svg" xmlns:xlink="http://www.w3.org/1999/xlink" x="0px" y="0px"
	 viewBox="0 0 424.3 100.6" enable-background="new 0 0 424.3 100.6" xml:space="preserve">
<g>
	<path fill="#FFFFFF" d="M121.5,43.6c0,1.6,0.1,2.9,0.4,3.7c0.3,0.8,0.8,1.5,1.5,2.1h-8.8c0.7-0.6,1.2-1.3,1.5-2.1
		c0.3-0.8,0.4-2,0.4-3.7V20.4h-2.6c-1.8,0-3.2,0.1-4.3,0.4c-1.1,0.3-2,0.7-2.6,1.4l1.6-5.3h22.9l-1.5,5.2c-0.5-0.6-1.1-1-1.9-1.3
		c-0.8-0.3-1.8-0.4-2.9-0.4h-3.6L121.5,43.6L121.5,43.6z"/>
	<path fill="#FFFFFF" d="M138.9,44.2c0,1.5,0.1,2.5,0.4,3.2c0.3,0.7,0.7,1.3,1.3,1.9h-7.8c0.6-0.6,1-1.2,1.3-1.9
		c0.3-0.7,0.4-1.8,0.4-3.2V25.4c0-1.5-0.1-2.5-0.4-3.2c-0.3-0.7-0.7-1.3-1.3-1.9h7.8c-0.6,0.5-1,1.2-1.3,1.9
		c-0.2,0.7-0.4,1.8-0.4,3.2V32h15.4v-6.5c0-1.5-0.1-2.5-0.4-3.2c-0.3-0.7-0.7-1.3-1.3-1.9h7.8c-0.6,0.5-1,1.2-1.3,1.9
		c-0.3,0.7-0.4,1.8-0.4,3.2v18.8c0,1.5,0.1,2.5,0.4,3.2c0.3,0.7,0.7,1.3,1.3,1.9h-7.8c0.6-0.6,1.1-1.2,1.3-1.9
		c0.2-0.7,0.4-1.8,0.4-3.2v-8.9h-15.4V44.2L138.9,44.2z"/>
	<path fill="#FFFFFF" d="M164.2,49.4c0.6-0.6,1-1.2,1.3-1.9c0.3-0.7,0.4-1.8,0.4-3.3V25.5c0-1.5-0.1-2.6-0.4-3.3
		c-0.3-0.7-0.7-1.3-1.3-1.9h15.7v4.6c-0.7-0.6-1.5-1-2.3-1.2c-0.8-0.3-1.8-0.4-2.9-0.4c-0.6,0-1.2,0-1.9,0.1
		c-0.7,0.1-1.5,0.2-2.4,0.4v8.2h7v4.2c-0.3-0.4-0.8-0.7-1.3-0.8c-0.6-0.2-1.6-0.2-3.1-0.2h-2.6v10.4c1.1,0.2,2.1,0.3,2.9,0.4
		c0.9,0.1,1.6,0.1,2.3,0.1c1.5,0,2.8-0.2,4.1-0.6s2.6-1,3.8-1.8l-2,5.7L164.2,49.4L164.2,49.4z"/>
	<path fill="#FFFFFF" d="M220.1,49.3v-2.5c-1.6,1.1-3.1,2-4.7,2.5c-1.6,0.6-3.2,0.8-4.8,0.8c-1.9,0-3.5-0.3-5-0.9
		c-1.5-0.6-2.7-1.6-3.8-2.8c-0.8-1-1.4-2.1-1.8-3.4s-0.5-3-0.5-5.2V22.6c0-1.6-0.1-2.8-0.4-3.6c-0.3-0.8-0.8-1.5-1.4-2.1h8.7
		c-0.7,0.6-1.1,1.3-1.4,2.1c-0.3,0.8-0.4,2-0.4,3.6v14.2c0,2.2,0.1,3.9,0.3,4.9c0.2,1.1,0.6,1.9,1.1,2.6c0.6,0.8,1.4,1.3,2.4,1.7
		c1,0.4,2.2,0.6,3.6,0.6c1.2,0,2.3-0.2,3.3-0.5c1-0.3,1.9-0.9,2.7-1.5c0.7-0.6,1.2-1.3,1.5-2.2c0.3-0.9,0.4-2.1,0.4-3.7V22.6
		c0-1.7-0.1-2.9-0.4-3.7c-0.3-0.8-0.8-1.4-1.4-2h8.8c-0.7,0.6-1.2,1.3-1.5,2.1c-0.3,0.8-0.4,2-0.4,3.6v21c0,1.6,0.1,2.8,0.4,3.6
		c0.3,0.8,0.8,1.5,1.5,2.1L220.1,49.3L220.1,49.3L220.1,49.3z"/>
	<path fill="#FFFFFF" d="M258.6,20.3c-0.6,0.5-1.1,1.2-1.3,1.9c-0.3,0.7-0.4,1.8-0.4,3.2v24.6c-1,0-1.9-0.4-2.8-1
		c-0.9-0.6-2-1.8-3.4-3.6L236,26.6v17.7c0,1.5,0.1,2.6,0.4,3.3c0.2,0.7,0.7,1.3,1.3,1.8h-6.5c0.6-0.6,1-1.2,1.3-1.9
		c0.3-0.7,0.4-1.8,0.4-3.3V25.4c0-1.5-0.1-2.5-0.4-3.2c-0.3-0.7-0.7-1.3-1.3-1.9h5.8l16.9,21.8V25.4c0-1.5-0.1-2.5-0.4-3.2
		c-0.3-0.7-0.7-1.3-1.3-1.9L258.6,20.3L258.6,20.3z"/>
	<path fill="#FFFFFF" d="M269.5,44.2c0,1.5,0.1,2.6,0.4,3.3c0.3,0.7,0.7,1.3,1.3,1.9h-7.8c0.6-0.6,1-1.2,1.3-1.9
		c0.2-0.7,0.4-1.8,0.4-3.3V25.4c0-1.5-0.1-2.5-0.4-3.2c-0.3-0.7-0.7-1.3-1.3-1.9h7.8c-0.6,0.5-1,1.2-1.3,1.9
		c-0.3,0.7-0.4,1.8-0.4,3.2V44.2L269.5,44.2z"/>
	<path fill="#FFFFFF" d="M287.8,50.1c-1.2-0.3-2.3-1-3.1-2.1c-0.9-1.1-1.7-2.7-2.4-4.8l-5.8-16.9c-0.5-1.4-0.9-2.5-1.3-3.4
		c-0.4-0.9-0.9-1.7-1.4-2.5l5.9,0c0,0.5,0.1,0.9,0.1,1.3c0.1,0.4,0.1,0.8,0.3,1.2l7,20.8l6.6-17.3c0.2-0.5,0.3-1.1,0.5-1.6
		c0.1-0.5,0.2-1,0.2-1.5c0-0.4-0.1-0.8-0.3-1.2c-0.2-0.4-0.6-1-1.1-1.6h6.6L287.8,50.1L287.8,50.1z"/>
	<path fill="#FFFFFF" d="M301.4,49.4c0.6-0.6,1-1.2,1.3-1.9c0.3-0.7,0.4-1.8,0.4-3.3V25.5c0-1.5-0.1-2.6-0.4-3.3
		c-0.3-0.7-0.7-1.3-1.3-1.9H317v4.6c-0.7-0.6-1.5-1-2.3-1.2c-0.8-0.3-1.8-0.4-2.9-0.4c-0.6,0-1.2,0-1.9,0.1
		c-0.7,0.1-1.5,0.2-2.4,0.4v8.2h7v4.2c-0.3-0.4-0.8-0.7-1.3-0.8c-0.6-0.2-1.6-0.2-3.1-0.2h-2.6v10.4c1.1,0.2,2.1,0.3,2.9,0.4
		c0.9,0.1,1.6,0.1,2.3,0.1c1.4,0,2.8-0.2,4.1-0.6s2.6-1,3.8-1.8l-2,5.7L301.4,49.4L301.4,49.4z"/>
	<path fill="#FFFFFF" d="M328.9,44.2c0,1.5,0.1,2.5,0.4,3.2c0.2,0.7,0.7,1.3,1.3,1.9h-7.8c0.6-0.6,1-1.2,1.3-1.9
		c0.3-0.7,0.4-1.8,0.4-3.2V25.5c0-1.5-0.1-2.5-0.4-3.2c-0.3-0.7-0.7-1.3-1.3-1.9h9.9c2.8,0,5.1,0.7,6.8,2c1.7,1.4,2.6,3.1,2.6,5.3
		c0,1.6-0.5,3-1.6,4.2c-1,1.2-2.7,2.3-4.9,3.2l7.4,10.1c0.4,0.6,1,1.2,1.6,1.9c0.6,0.7,1.3,1.4,2.1,2.1l-2.2,0.2h-0.4
		c-1,0-2.1-0.3-3-0.8c-1-0.6-1.8-1.3-2.5-2.3l-8.5-11.9c2.5-0.6,4.4-1.4,5.6-2.4c1.2-1,1.8-2.3,1.8-3.9c0-1.5-0.5-2.7-1.5-3.6
		c-1-0.9-2.3-1.4-4-1.4c-0.4,0-0.8,0-1.3,0.1c-0.5,0.1-1.1,0.2-1.8,0.3L328.9,44.2C328.9,44.2,328.9,44.2,328.9,44.2z"/>
	<path fill="#FFFFFF" d="M348.1,48.7l-1.4-5.3c1.7,1.1,3.3,2,4.8,2.5c1.6,0.6,3.1,0.8,4.7,0.8c2,0,3.5-0.4,4.7-1.3
		c1.2-0.9,1.8-2,1.8-3.3c0-0.4-0.1-0.8-0.2-1.2c-0.1-0.4-0.3-0.8-0.5-1.1c-0.5-0.8-2.3-1.9-5.2-3.4c-0.8-0.4-1.3-0.7-1.8-0.9
		c-2.8-1.4-4.7-2.7-5.7-3.9c-1-1.2-1.6-2.6-1.6-4.3c0-2.4,1-4.2,2.8-5.6c1.9-1.4,4.5-2.1,7.8-2.1c0.9,0,2,0.1,3.1,0.2
		c1.1,0.1,2.4,0.3,3.7,0.6v4.9c-1.2-0.9-2.4-1.6-3.6-2c-1.2-0.4-2.4-0.7-3.7-0.7c-1.6,0-2.9,0.4-3.9,1.1c-1,0.7-1.5,1.6-1.5,2.8
		c0,1,0.4,1.9,1.2,2.7c0.8,0.8,2.5,1.8,5.2,3.1c0.2,0.1,0.4,0.2,0.7,0.3c2.3,1.1,4,2.1,5.2,3c0.8,0.7,1.5,1.5,2,2.4
		c0.5,1,0.7,2,0.7,3.1c0,2.5-1.1,4.6-3.4,6.4c-2.2,1.7-5.1,2.6-8.4,2.6c-1.1,0-2.2-0.1-3.5-0.4C351,49.6,349.6,49.2,348.1,48.7
		L348.1,48.7z"/>
	<path fill="#FFFFFF" d="M377.6,44.2c0,1.5,0.1,2.6,0.4,3.3c0.3,0.7,0.7,1.3,1.3,1.9h-7.9c0.6-0.6,1.1-1.2,1.3-1.9
		c0.3-0.7,0.4-1.8,0.4-3.3V25.4c0-1.5-0.1-2.5-0.4-3.2c-0.2-0.7-0.7-1.3-1.3-1.9h7.9c-0.6,0.5-1.1,1.2-1.3,1.9
		c-0.3,0.7-0.4,1.8-0.4,3.2V44.2L377.6,44.2z"/>
	<path fill="#FFFFFF" d="M216.8,69.2l-4.7,12.1h9.4L216.8,69.2L216.8,69.2z M217.4,58.8l2.6,6.3l9.8,24.6c1.1,2.7,1.9,5.4,4.6,6.8
		v0.1h-9.7v-0.1c2.3-1,1.9-1.6,0.7-4.9l-2.6-6.8h-12l-2.5,6.8c-1,2.7-1.3,4.1,0.9,4.9v0.1h-8.7v-0.1c2.7-1.4,3.5-4.1,4.6-6.8
		L217.4,59L217.4,58.8L217.4,58.8z"/>
	<path fill="#FFFFFF" d="M156.7,70c-3.2,0-5.8,1.1-7.9,3.3c-2.1,2.2-3.1,5.1-3.1,8.5c0,3.6,1,6.5,3.1,8.9c2,2.4,4.6,3.5,7.7,3.5
		c3.2,0,5.8-1.1,7.9-3.3c2.1-2.2,3.1-5.1,3.1-8.5c0-3.6-1-6.5-3.1-8.8C162.2,71.2,159.7,70,156.7,70L156.7,70z M156.5,97.4
		c-2.2,0-4.2-0.4-6.2-1.1c-1.9-0.7-3.6-1.7-5-3c-1.5-1.4-2.6-3-3.4-4.9c-0.8-1.9-1.2-3.9-1.2-6c0-1.6,0.2-3.2,0.8-4.8
		c0.5-1.5,1.2-3,2.2-4.3c1.5-2,3.3-3.6,5.5-4.7c2.2-1.1,4.6-1.7,7.2-1.7c2.2,0,4.3,0.4,6.2,1.1c1.9,0.7,3.6,1.7,5,3
		c1.5,1.4,2.6,3,3.4,4.9c0.8,1.9,1.2,4,1.2,6.2c0,2-0.4,4-1.3,5.9c-0.9,1.9-2.1,3.7-3.7,5.1c-1.4,1.4-3.1,2.4-4.9,3.1
		C160.5,97,158.6,97.4,156.5,97.4L156.5,97.4z"/>
	<path fill="#FFFFFF" d="M180.8,91.5c0,1.5,0.1,2.5,0.4,3.2c0.3,0.7,0.7,1.3,1.3,1.9h-7.8c0.6-0.6,1-1.2,1.3-1.9
		c0.3-0.7,0.4-1.8,0.4-3.2V72.8c0-1.5-0.1-2.6-0.4-3.3c-0.3-0.7-0.7-1.3-1.3-1.9h15.7v4.6c-0.7-0.6-1.5-1-2.3-1.2
		c-0.8-0.2-1.8-0.4-2.9-0.4c-0.6,0-1.2,0-1.9,0.1c-0.7,0.1-1.5,0.2-2.4,0.4v8.2h7v4.2c-0.3-0.4-0.8-0.7-1.3-0.8
		c-0.6-0.2-1.6-0.2-3.1-0.2h-2.6L180.8,91.5L180.8,91.5z"/>
	<path fill="#FFFFFF" d="M242.7,91.5c0,1.5,0.1,2.5,0.4,3.2c0.3,0.7,0.7,1.3,1.3,1.9h-7.8c0.6-0.6,1-1.2,1.3-1.9
		c0.3-0.7,0.4-1.8,0.4-3.2V72.7c0-1.5-0.1-2.5-0.4-3.2c-0.3-0.7-0.7-1.3-1.3-1.9h9.9c2.8,0,5.1,0.7,6.8,2c1.7,1.4,2.6,3.1,2.6,5.3
		c0,1.6-0.5,3-1.6,4.2c-1,1.2-2.7,2.3-4.9,3.2l7.4,10.1c0.4,0.6,1,1.2,1.6,1.9c0.6,0.7,1.3,1.4,2.1,2.1l-2.2,0.2H258
		c-1,0-2.1-0.3-3-0.8c-1-0.6-1.8-1.3-2.5-2.3l-8.5-11.9c2.5-0.6,4.4-1.4,5.6-2.4c1.2-1,1.8-2.3,1.8-3.9c0-1.5-0.5-2.7-1.5-3.6
		c-1-0.9-2.3-1.4-4-1.4c-0.4,0-0.8,0-1.3,0.1c-0.5,0.1-1.1,0.2-1.8,0.3L242.7,91.5L242.7,91.5z"/>
	<path fill="#FFFFFF" d="M269.2,91.5c0,1.5,0.1,2.6,0.4,3.2c0.2,0.7,0.7,1.3,1.3,1.9H263c0.6-0.6,1-1.2,1.3-1.9
		c0.3-0.7,0.4-1.8,0.4-3.2V72.7c0-1.5-0.1-2.5-0.4-3.2c-0.3-0.7-0.7-1.3-1.3-1.9h7.8c-0.6,0.5-1.1,1.2-1.3,1.9
		c-0.3,0.7-0.4,1.8-0.4,3.2V91.5L269.2,91.5z"/>
	<path fill="#FFFFFF" d="M298.2,91.2l-2.1,5.4h-22.3L289,71.4c-1.1-0.3-2.2-0.5-3.2-0.6c-1-0.1-1.9-0.2-2.8-0.2
		c-1.3,0-2.5,0.2-3.7,0.5c-1.2,0.3-2.4,0.8-3.6,1.5l2-4.9h18.6l-15.2,25.3c1.7,0.2,3.1,0.3,4.3,0.4c1.1,0.1,2.1,0.1,3,0.1
		c2,0,3.8-0.2,5.4-0.6C295.3,92.5,296.8,92,298.2,91.2L298.2,91.2z"/>
	<path fill="#FFFFFF" d="M314.8,70c-3.2,0-5.8,1.1-7.9,3.3c-2.1,2.2-3.1,5.1-3.1,8.5c0,3.6,1,6.5,3.1,8.9c2,2.4,4.6,3.5,7.7,3.5
		c3.2,0,5.8-1.1,7.9-3.3c2.1-2.2,3.1-5.1,3.1-8.5c0-3.6-1-6.5-3.1-8.8C320.4,71.2,317.9,70,314.8,70L314.8,70z M314.7,97.4
		c-2.2,0-4.2-0.4-6.2-1.1c-1.9-0.7-3.6-1.7-5-3c-1.5-1.4-2.6-3-3.4-4.9c-0.8-1.9-1.2-3.9-1.2-6c0-1.6,0.2-3.2,0.8-4.8
		c0.5-1.5,1.2-3,2.2-4.3c1.5-2,3.4-3.6,5.6-4.7c2.2-1.1,4.6-1.7,7.2-1.7c2.2,0,4.3,0.4,6.2,1.1c1.9,0.7,3.6,1.7,5,3
		c1.5,1.4,2.6,3,3.4,4.9c0.8,1.9,1.2,4,1.2,6.2c0,2-0.4,4-1.3,5.9c-0.9,1.9-2.1,3.7-3.7,5.1c-1.4,1.4-3.1,2.4-4.9,3.1
		C318.7,97,316.7,97.4,314.7,97.4L314.7,97.4z"/>
	<path fill="#FFFFFF" d="M360.3,67.6c-0.6,0.5-1.1,1.2-1.3,1.9c-0.3,0.7-0.4,1.8-0.4,3.2v24.6c-1,0-2-0.4-2.8-1
		c-0.9-0.6-2-1.8-3.4-3.6l-14.8-18.9v17.7c0,1.5,0.1,2.6,0.4,3.3c0.2,0.7,0.7,1.3,1.3,1.8h-6.5c0.6-0.6,1-1.2,1.3-1.9
		c0.3-0.7,0.4-1.8,0.4-3.2V72.7c0-1.5-0.1-2.5-0.4-3.2c-0.3-0.7-0.7-1.3-1.3-1.9h5.8l16.9,21.8V72.7c0-1.5-0.1-2.5-0.4-3.2
		c-0.3-0.7-0.7-1.3-1.3-1.9L360.3,67.6L360.3,67.6z"/>
	<path fill="#FFFFFF" d="M370.8,82.9h8.4l-4-11.2L370.8,82.9L370.8,82.9z M367,92.8c-0.1,0.3-0.2,0.6-0.3,0.9
		c-0.1,0.3-0.1,0.6-0.1,1c0,0.3,0.1,0.6,0.3,0.9c0.2,0.3,0.5,0.7,1,1.1h-6.8c0.6-0.4,1.1-0.9,1.5-1.6c0.4-0.7,0.9-1.6,1.4-2.8
		l8.1-20.7c0.2-0.4,0.3-0.8,0.4-1.1c0.1-0.4,0.1-0.7,0.1-1c0-0.3-0.1-0.6-0.2-0.9c-0.2-0.3-0.4-0.6-0.8-0.8h6.5l9.1,24.3
		c0.4,1.1,0.9,2,1.4,2.7c0.5,0.7,1.1,1.4,1.9,2h-8.2l0.1-0.1c0.8-0.8,1.1-1.4,1.1-1.8c0-0.4-0.2-1.1-0.5-2c0-0.1-0.1-0.2-0.1-0.3
		l-2.5-6.7h-10.7L367,92.8L367,92.8z"/>
	<path fill="#FFFFFF" d="M405.4,20.3l7.5,12.7l5-8.2c0.3-0.5,0.5-1,0.7-1.4c0.2-0.4,0.2-0.8,0.2-1.1c0-0.3-0.1-0.7-0.3-1
		c-0.2-0.3-0.5-0.7-0.9-1h6.7l-9.8,16v7.9c0,1.5,0.1,2.6,0.4,3.3c0.3,0.7,0.7,1.3,1.3,1.9h-7.9c0.6-0.6,1.1-1.2,1.3-1.9
		c0.2-0.7,0.4-1.8,0.4-3.3l0-8l-6.7-11.1c-0.7-1-1.2-1.1-1.8-1.4c-0.7-0.2-1.9-0.3-2.9-0.3h-3.2v20.7c0,1.5,0.1,2.6,0.4,3.3
		c0.3,0.7,0.7,1.3,1.3,1.9h-7.9c0.6-0.6,1-1.2,1.3-1.9c0.2-0.7,0.4-1.8,0.4-3.3V23.5h-2.3c-1.6,0-2.9,0.1-3.9,0.4
		c-1,0.2-1.8,0.7-2.4,1.2l1.4-4.8L405.4,20.3L405.4,20.3z"/>
	<polygon fill="#FFFFFF" points="87.8,0 87.8,32.7 84.5,32.7 97.6,67.9 109,67.9 109,100.6 0,100.6 0,67.9 11.2,67.9 24.5,32.6 
		21.1,32.6 21.2,0 	"/>
	<polyline fill="#0C234B" points="54.5,12.1 75.5,12.1 75.5,20.5 66.8,20.5 89.8,79.8 96.6,79.8 96.6,88.5 68.1,88.5 68.1,80 
		60.1,80 60.1,96.6 105,96.6 105,71.8 94.9,71.9 78.8,28.7 83.8,28.7 83.8,3.9 54.5,3.9 54.5,3.9 25.1,3.9 25.1,28.7 30.2,28.7 
		14,71.8 3.9,71.8 3.9,96.6 48.9,96.6 48.9,80 40.9,80 40.9,88.5 12.4,88.5 12.4,79.8 19.2,79.8 42.2,20.5 33.4,20.5 33.4,12.1 
		54.5,12.1 	"/>

	<path fill="#AB0520" d="M54.5,12.2l23.3,60.5c0,0,3,7.4,7.8,7.4h-17c0,0,0.9,0.1,1.7-1.3c0.5-0.8,0.1-2,0.1-2l-5.3-13.5H54.5H43.8
		l-5.3,13.5c0,0-0.4,1.2,0.1,2c0.8,1.4,1.7,1.3,1.7,1.3h-17c4.9,0,7.8-7.4,7.8-7.4L54.5,12.2 M54.4,56.8h8.2l-8.2-21.2l-8.2,21.2
		H54.4L54.4,56.8L54.4,56.8z"/>
</g>
</svg>
